<mxfile host="app.diagrams.net" modified="2021-06-17T06:47:14.606Z" agent="5.0 (Macintosh; Intel Mac OS X 10_15_7) AppleWebKit/537.36 (KHTML, like Gecko) Chrome/91.0.4472.106 Safari/537.36" etag="JC_q7Vwaos60nVjxG_HY" version="14.7.10" type="github">
  <diagram id="Vrm538FkMoNGakXbKbN-" name="第 1 页">
    <mxGraphModel dx="1298" dy="721" grid="1" gridSize="10" guides="1" tooltips="1" connect="1" arrows="1" fold="1" page="1" pageScale="1" pageWidth="827" pageHeight="1169" math="0" shadow="0">
      <root>
        <mxCell id="0" />
        <mxCell id="1" parent="0" />
        <mxCell id="rr3Yhpa_-5LyKe0VsY2T-1" value="" style="rounded=0;whiteSpace=wrap;html=1;fillColor=#99FFCC;" vertex="1" parent="1">
          <mxGeometry x="120" y="120" width="120" height="60" as="geometry" />
        </mxCell>
        <mxCell id="rr3Yhpa_-5LyKe0VsY2T-2" value="" style="shape=cylinder3;whiteSpace=wrap;html=1;boundedLbl=1;backgroundOutline=1;size=15;fillColor=#330033;" vertex="1" parent="1">
          <mxGeometry x="384" y="240" width="60" height="80" as="geometry" />
        </mxCell>
      </root>
    </mxGraphModel>
  </diagram>
</mxfile>
